<?xml version="1.0" encoding="UTF-8" standalone="no"?><!DOCTYPE svg PUBLIC "-//W3C//DTD SVG 1.1//EN" "http://www.w3.org/Graphics/SVG/1.1/DTD/svg11.dtd"><svg width="100%" height="100%" viewBox="0 0 136 80" version="1.1" xmlns="http://www.w3.org/2000/svg" xmlns:xlink="http://www.w3.org/1999/xlink" xml:space="preserve" xmlns:serif="http://www.serif.com/" style="fill-rule:evenodd;clip-rule:evenodd;stroke-linejoin:round;stroke-miterlimit:2;"><path d="M79.304,35.135c-3.105,-3.106 -7.318,-4.851 -11.711,-4.851c-4.392,-0 -8.605,1.745 -11.711,4.851c-11.719,11.719 -29.27,29.27 -38.315,38.315c-3.234,3.234 -8.477,3.234 -11.71,0c-0.001,-0 -0.001,-0.001 -0.002,-0.002c-3.234,-3.233 -3.234,-8.476 -0,-11.709c11.111,-11.112 35.447,-35.448 50.027,-50.028c6.468,-6.468 16.955,-6.468 23.422,0c14.581,14.58 38.916,38.916 50.028,50.028c3.233,3.233 3.233,8.476 -0,11.709c-0.001,0.001 -0.001,0.002 -0.002,0.002c-3.234,3.234 -8.476,3.234 -11.71,0c-9.045,-9.045 -26.596,-26.596 -38.316,-38.315Z"/></svg>